# xmcd CD database file
#
# Track frame offsets:
#	150
#	24855
#	39735
#	56920
#	97130
#	128275
#	152960
#	174205
#	187105
#	208192
#	238122
#
# Disc length: 3474 seconds
#
# Revision: 3
# Processed by: cddbd v1.5.2PL0 Copyright (c) Steve Scherf et al.
# Submitted via: CDex 1.70beta2
#
DISCID=950d900b
DTITLE=Little John Chrisley - Little John Chrisley
DYEAR=1900
DGENRE=Blues
TTITLE0=Born in Rochester
TTITLE1=War Headed Woman
TTITLE2=The Way It Goes
TTITLE3=Disconnected
TTITLE4=Big Bad Boogie
TTITLE5=Master Plan
TTITLE6=Don't Suffocate Me
TTITLE7=Buried In Bills
TTITLE8=Beer Goggles
TTITLE9=Life's Undertow
TTITLE10=Stone Cold Blue
EXTD=1995 Blues Bureau International\nShrapnel Records, Inc.\nP.O. Box P,\nNovato, CA 94948
EXTT0=
EXTT1=
EXTT2=
EXTT3=
EXTT4=
EXTT5=
EXTT6=
EXTT7=
EXTT8=
EXTT9=
EXTT10=
PLAYORDER=
